<svg width="24" height="24" viewBox="0 0 24 24" fill="none" xmlns="http://www.w3.org/2000/svg">
<path d="M12.0036 7.91041C14.0118 7.91041 15.6417 9.54025 15.6417 11.5484C15.6417 12.0214 15.5471 12.4652 15.3797 12.8799L17.5043 15.0045C18.603 14.0878 19.4688 12.9018 20 11.5484C18.7412 8.35425 15.6344 6.09141 11.9964 6.09141C10.9777 6.09141 10.0027 6.27331 9.1005 6.60073L10.6721 8.17235C11.0869 8.005 11.5307 7.91041 12.0036 7.91041ZM4.7276 5.92406L6.38654 7.58299L6.72124 7.91769C5.51341 8.8563 4.56753 10.1078 4 11.5484C5.25875 14.7426 8.36562 17.0055 12.0036 17.0055C13.1314 17.0055 14.2083 16.7872 15.1905 16.3943L15.4961 16.6999L17.628 18.8245L18.5521 17.9004L5.65166 5L4.7276 5.92406ZM8.75125 9.9477L9.87904 11.0755C9.84266 11.2283 9.82083 11.3884 9.82083 11.5484C9.82083 12.7563 10.7958 13.7312 12.0036 13.7312C12.1637 13.7312 12.3238 13.7094 12.4766 13.673L13.6044 14.8008C13.1169 15.0409 12.5784 15.1864 12.0036 15.1864C9.99545 15.1864 8.36562 13.5566 8.36562 11.5484C8.36562 10.9736 8.51114 10.4352 8.75125 9.9477ZM11.8872 9.38017L14.1792 11.6721L14.1937 11.5557C14.1937 10.3479 13.2187 9.3729 12.0109 9.3729L11.8872 9.38017Z" fill="#5883F2"/>
</svg>
