<svg width="124" height="124" viewBox="0 0 124 124" fill="none" xmlns="http://www.w3.org/2000/svg">
<path opacity="0.45" d="M64.6111 120.94C95.7651 120.94 121.02 116.748 121.02 111.576C121.02 106.404 95.7651 102.211 64.6111 102.211C33.457 102.211 8.20166 106.404 8.20166 111.576C8.20166 116.748 33.457 120.94 64.6111 120.94Z" fill="#E6E6E6"/>
<path d="M27.4049 107.375C27.4049 107.375 26.8714 109.184 25.2797 109.405C23.688 109.627 23.3625 111.214 24.8275 111.544C26.2926 111.874 29.8874 109.808 29.8874 109.808L29.6478 107.506L27.4049 107.375Z" fill="#5883F2"/>
<path d="M54.6264 107.375C54.6264 107.375 55.1645 109.184 56.7516 109.405C58.3388 109.627 58.6689 111.214 57.2038 111.544C55.7387 111.874 52.1484 109.808 52.1484 109.808L52.3836 107.506L54.6264 107.375Z" fill="#5883F2"/>
<path d="M49.9921 9.62887C49.9921 9.62887 50.2905 13.1016 49.7072 15.4122C49.6508 15.6363 49.5505 15.847 49.4123 16.0322C49.274 16.2173 49.1004 16.3733 48.9016 16.491C48.7027 16.6087 48.4826 16.6858 48.2537 16.718C48.0249 16.7502 47.792 16.7367 47.5684 16.6784C46.4108 16.3663 44.9322 15.6067 44.5433 13.7663L43.4988 10.7186C43.3554 10.0863 43.4115 9.42505 43.6593 8.82587C43.9071 8.22668 44.3344 7.71896 44.8824 7.37249C46.8449 5.95717 49.9107 7.4991 49.9921 9.62887Z" fill="#F4A28C"/>
<path d="M44.0181 11.5176L39.2385 22.0579L45.2209 24.1198L46.2518 15.8811L44.0181 11.5176Z" fill="#F4A28C"/>
<path d="M43.0781 11.5772L43.0509 13.6618C43.5629 13.8606 44.1281 13.875 44.6496 13.7026C45.171 13.5302 45.6162 13.1816 45.9087 12.7167C46.2201 12.2426 46.3861 11.6878 46.3861 11.1205C46.3861 10.5533 46.2201 9.99846 45.9087 9.52434C45.9087 9.52434 46.3609 10.7814 47.4642 10.0263C48.5675 9.27112 49.2729 9.31182 49.3543 10.1393C49.4357 10.9668 50.8782 10.9306 51.4886 9.27112C52.0991 7.61162 49.7613 8.25372 50.4757 7.27701C51.1902 6.3003 52.2076 5.62203 50.738 4.75385C49.2684 3.88566 49.4583 5.77577 48.4771 4.75385C47.4959 3.73192 47.3557 2.57887 45.7278 3.15313C44.1 3.7274 45.1898 5.29194 43.5393 4.9935C41.8888 4.69507 41.396 5.05681 41.206 6.82483C41.084 7.97789 40.989 8.83251 41.5497 9.15356C41.9983 9.38351 42.3768 9.7298 42.6457 10.1562C42.9145 10.5826 43.0639 11.0734 43.0781 11.5772Z" fill="#24285B"/>
<path d="M46.2835 12.6134C46.2835 12.6134 46.2564 11.2568 45.248 11.3744C44.2397 11.492 44.2668 13.4183 45.6369 13.5991L46.2835 12.6134Z" fill="#F4A28C"/>
<path d="M50.0688 11.8262L51.041 13.1827C51.0958 13.2594 51.1304 13.3486 51.1417 13.4421C51.1529 13.5357 51.1403 13.6306 51.1052 13.718C51.07 13.8054 51.0134 13.8826 50.9405 13.9424C50.8677 14.0021 50.7809 14.0426 50.6883 14.0599L49.3318 14.3132L50.0688 11.8262Z" fill="#F4A28C"/>
<path opacity="0.31" d="M46.2203 16.1115C45.5557 15.7189 45.0102 15.1532 44.6422 14.4746C44.6422 14.4746 43.4032 16.6496 45.9354 18.4764L46.2203 16.1115Z" fill="#CE8172"/>
<path d="M53.5823 25.5039C53.5823 25.5039 77.584 33.2181 77.4483 51.7575L61.2648 41.8095L53.5823 25.5039Z" fill="#5883F2"/>
<path d="M109.142 67.2715H106.523V110.785H109.142V67.2715Z" fill="#C9C9C9"/>
<path d="M109.142 67.2715H106.523V110.785H109.142V67.2715Z" fill="#5883F2"/>
<path opacity="0.48" d="M109.142 67.2715H106.523V110.785H109.142V67.2715Z" fill="white"/>
<path d="M98.673 51.9336H113.179C114.738 51.9336 116.233 52.5529 117.336 53.6553C118.438 54.7577 119.057 56.2529 119.057 57.8119V67.2761H92.6816V57.925C92.6816 56.336 93.3129 54.812 94.4365 53.6884C95.5601 52.5648 97.084 51.9336 98.673 51.9336Z" fill="#5883F2"/>
<path d="M97.6375 51.9336C98.9567 51.9336 100.222 52.4576 101.155 53.3904C102.087 54.3232 102.612 55.5884 102.612 56.9076V67.3077H92.6816V56.9076C92.6816 55.5884 93.2057 54.3232 94.1385 53.3904C95.0713 52.4576 96.3364 51.9336 97.6556 51.9336H97.6375Z" fill="#5883F2"/>
<path opacity="0.08" d="M97.6375 51.9336C98.9567 51.9336 100.222 52.4576 101.155 53.3904C102.087 54.3232 102.612 55.5884 102.612 56.9076V67.3077H92.6816V56.9076C92.6816 55.5884 93.2057 54.3232 94.1385 53.3904C95.0713 52.4576 96.3364 51.9336 97.6556 51.9336H97.6375Z" fill="black"/>
<path d="M102.372 110.79L99.5825 102.212L104.376 105.449L104.783 96.1797L109.72 105.526L115.07 102.212L111.868 110.79H102.372Z" fill="#C9C9C9"/>
<path d="M25.4658 20.6655C26.1263 20.0963 26.8994 19.6728 27.7346 19.4226C28.5699 19.1725 29.4485 19.1014 30.3132 19.214C36.1056 19.9284 51.0682 22.2978 57.7966 28.3344C66.2388 35.913 70.1547 45.9197 49.3544 71.816H29.7615C29.7615 71.816 11.5206 32.906 25.4658 20.6655Z" fill="#5883F2"/>
<path opacity="0.08" d="M30.3894 29.877C30.3894 29.877 30.213 39.3999 34.4319 44.2246C38.6507 49.0494 60.1744 56.0536 60.1744 56.0536C57.3659 61.532 53.8959 66.6452 49.8421 71.2785L49.3538 71.8347H29.7608C29.7608 71.8347 22.8244 56.239 21.2192 45.5088C20.1068 38.0659 30.3894 29.877 30.3894 29.877Z" fill="black"/>
<path d="M55.2603 31.0115L34.4521 29.6914L33.3007 47.8416L54.1089 49.1617L55.2603 31.0115Z" fill="#24285B"/>
<path d="M44.5296 34.7109L32.176 43.1441L31.1179 59.8386L54.6629 61.3307L55.721 44.6363L44.5296 34.7109Z" fill="#FFD200"/>
<path opacity="0.08" d="M32.176 43.1445C32.176 43.1445 33.1708 56.7325 54.9614 56.615L54.6584 61.3312L31.1179 59.839L32.176 43.1445Z" fill="black"/>
<path d="M25.9946 53.2234C25.9946 53.2234 28.7077 50.135 33.6817 52.8481L33.2295 56.0495H25.9946V53.2234Z" fill="#F4A28C"/>
<path d="M24.7469 20.5025C18.0546 24.0522 4.69272 32.1597 0.0985754 53.887C-0.0519293 54.5897 -0.0298154 55.3184 0.163022 56.0106C0.35586 56.7029 0.713673 57.3381 1.20579 57.8618C1.69791 58.3855 2.30967 58.782 2.98863 59.0175C3.6676 59.2529 4.39352 59.3202 5.1042 59.2136L25.9813 56.0484V53.2223L12.8681 52.3179C12.8681 52.3179 32.14 40.2221 30.7971 23.7582C30.7342 23.081 30.5048 22.4299 30.1293 21.8628C29.7538 21.2957 29.2439 20.8303 28.645 20.508C28.0461 20.1857 27.3767 20.0166 26.6966 20.0156C26.0165 20.0147 25.3467 20.1819 24.7469 20.5025Z" fill="#5883F2"/>
<path opacity="0.2" d="M24.7469 20.5025C18.0546 24.0522 4.69272 32.1597 0.0985754 53.887C-0.0519293 54.5897 -0.0298154 55.3184 0.163022 56.0106C0.35586 56.7029 0.713673 57.3381 1.20579 57.8618C1.69791 58.3855 2.30967 58.782 2.98863 59.0175C3.6676 59.2529 4.39352 59.3202 5.1042 59.2136L25.9813 56.0484V53.2223L12.8681 52.3179C12.8681 52.3179 32.14 40.2221 30.7971 23.7582C30.7342 23.081 30.5048 22.4299 30.1293 21.8628C29.7538 21.2957 29.2439 20.8303 28.645 20.508C28.0461 20.1857 27.3767 20.0166 26.6966 20.0156C26.0165 20.0147 25.3467 20.1819 24.7469 20.5025Z" fill="white"/>
<path d="M57.796 31.1121C57.796 31.1121 54.5855 28.7246 51.5921 29.1632L51.1399 32.3284C51.1399 32.3284 56.8871 33.685 57.7915 35.1952L57.796 31.1121Z" fill="#F4A28C"/>
<path d="M57.7964 31.1113L76.4307 48.1811C76.947 48.6526 77.3117 49.2666 77.4787 49.9456C77.6457 50.6245 77.6073 51.3377 77.3686 51.9948C77.1299 52.652 76.7015 53.2234 76.1376 53.6369C75.5738 54.0503 74.9 54.2871 74.2015 54.3172C68.4452 54.5297 60.7536 51.482 57.7964 35.1809V31.1113Z" fill="#5883F2"/>
<path opacity="0.2" d="M57.7964 31.1113L76.4307 48.1811C76.947 48.6526 77.3117 49.2666 77.4787 49.9456C77.6457 50.6245 77.6073 51.3377 77.3686 51.9948C77.1299 52.652 76.7015 53.2234 76.1376 53.6369C75.5738 54.0503 74.9 54.2871 74.2015 54.3172C68.4452 54.5297 60.7536 51.482 57.7964 35.1809V31.1113Z" fill="white"/>
<path d="M52.4154 46.9409L47.5281 46.6309L47.2698 50.7013L52.1571 51.0114L52.4154 46.9409Z" fill="white"/>
<path opacity="0.08" d="M44.0098 46.5333L37.3896 46.1133L37.3161 47.2731L43.9362 47.693L44.0098 46.5333Z" fill="black"/>
<path opacity="0.08" d="M43.867 48.7794L37.2468 48.3594L37.1732 49.5191L43.7934 49.9391L43.867 48.7794Z" fill="black"/>
<path d="M29.7613 71.834L25.9946 107.633H30.8782L39.2164 77.5631L49.3587 71.834H29.7613Z" fill="#24285B"/>
<path d="M49.3588 71.834L55.721 107.633H51.4253L39.9716 77.4139L37.0686 75.153L49.3588 71.834Z" fill="#24285B"/>
<path d="M60.9209 12.526C60.9209 12.526 101.902 6.81043 102.408 45.9873" stroke="#C9C9C9" stroke-width="2.03" stroke-linecap="round" stroke-linejoin="round" stroke-dasharray="3.05 10.15"/>
<path opacity="0.21" d="M113.564 59.7245C113.564 58.6631 112.703 57.8027 111.642 57.8027C110.581 57.8027 109.72 58.6631 109.72 59.7245C109.72 60.7859 110.581 61.6463 111.642 61.6463C112.703 61.6463 113.564 60.7859 113.564 59.7245Z" fill="white"/>
<path d="M111.642 60.2811C111.462 60.2811 111.289 60.2096 111.162 60.0824C111.035 59.9552 110.964 59.7827 110.964 59.6028V47.8959C110.965 47.0831 111.288 46.304 111.863 45.7293C112.438 45.1547 113.217 44.8313 114.029 44.8301H121.816C121.996 44.8301 122.168 44.9015 122.296 45.0287C122.423 45.1559 122.494 45.3285 122.494 45.5083C122.494 45.6882 122.423 45.8608 122.296 45.988C122.168 46.1152 121.996 46.1866 121.816 46.1866H114.029C113.576 46.1866 113.141 46.3667 112.821 46.6872C112.5 47.0078 112.32 47.4425 112.32 47.8959V59.6028C112.32 59.7827 112.249 59.9552 112.121 60.0824C111.994 60.2096 111.822 60.2811 111.642 60.2811Z" fill="#5883F2"/>
<path opacity="0.08" d="M111.642 60.2811C111.462 60.2811 111.289 60.2096 111.162 60.0824C111.035 59.9552 110.964 59.7827 110.964 59.6028V47.8959C110.965 47.0831 111.288 46.304 111.863 45.7293C112.438 45.1547 113.217 44.8313 114.029 44.8301H121.816C121.996 44.8301 122.168 44.9015 122.296 45.0287C122.423 45.1559 122.494 45.3285 122.494 45.5083C122.494 45.6882 122.423 45.8608 122.296 45.988C122.168 46.1152 121.996 46.1866 121.816 46.1866H114.029C113.576 46.1866 113.141 46.3667 112.821 46.6872C112.5 47.0078 112.32 47.4425 112.32 47.8959V59.6028C112.32 59.7827 112.249 59.9552 112.121 60.0824C111.994 60.2096 111.822 60.2811 111.642 60.2811Z" fill="black"/>
<path d="M124 43.9531H116.729V46.9692H124V43.9531Z" fill="#5883F2"/>
<path d="M124 44.1016H116.729V47.1176H124V44.1016Z" fill="#5883F2"/>
</svg>
